<svg
   xmlns:dc="http://purl.org/dc/elements/1.1/"
   xmlns:cc="http://web.resource.org/cc/"
   xmlns:rdf="http://www.w3.org/1999/02/22-rdf-syntax-ns#"
   xmlns:svg="http://www.w3.org/2000/svg"
   xmlns="http://www.w3.org/2000/svg"
   xmlns:sodipodi="http://sodipodi.sourceforge.net/DTD/sodipodi-0.dtd"
   xmlns:inkscape="http://www.inkscape.org/namespaces/inkscape"
   viewBox="0 0 294.68774 98.664032"
   width="294.68774"
   height="98.664032"
   id="svg3144"
   sodipodi:version="0.32"
   inkscape:version="0.45.1"
   sodipodi:docname="payscale.svg"
   inkscape:output_extension="org.inkscape.output.svg.inkscape"
   version="1.0">
  <defs
     id="defs3146" />
  <sodipodi:namedview
     id="base"
     pagecolor="#ffffff"
     bordercolor="#ffffff"
     borderopacity="0.0"
     inkscape:pageopacity="0.0"
     inkscape:pageshadow="0"
     inkscape:zoom="2.8284271"
     inkscape:cx="84.490195"
     inkscape:cy="72.983602"
     inkscape:document-units="px"
     inkscape:current-layer="layer1"
     inkscape:window-width="1440"
     inkscape:window-height="851"
     inkscape:window-x="-4"
     inkscape:window-y="-4"
     showguides="false"
     inkscape:guide-bbox="true"
     showborder="false"
     inkscape:showpageshadow="false"
     width="98.664032px"
     height="294.68774px" />
  <metadata
     id="metadata3149">
    <rdf:RDF>
      <cc:Work
         rdf:about="">
        <dc:format>image/svg+xml</dc:format>
        <dc:type
           rdf:resource="http://purl.org/dc/dcmitype/StillImage" />
      </cc:Work>
    </rdf:RDF>
  </metadata>
  <g
     inkscape:label="Layer 1"
     inkscape:groupmode="layer"
     id="layer1"
     transform="translate(-2.9523809e-7,-953.69818)">
    <path
       sodipodi:type="arc"
       style="fill:#b2131c;fill-opacity:1;stroke:#b2131c;stroke-width:0;stroke-miterlimit:4;stroke-dasharray:none;stroke-opacity:1"
       id="path2161"
       sodipodi:cx="205.71428"
       sodipodi:cy="229.50504"
       sodipodi:rx="120"
       sodipodi:ry="117.14286"
       d="M 325.71428 229.50504 A 120 117.14286 0 1 1  85.714279,229.50504 A 120 117.14286 0 1 1  325.71428 229.50504 z"
       transform="matrix(66.666667,0,0,68.292681,-5661.3851,-22691.231)" />
    <path
       transform="matrix(6.6666667e-2,0,0,6.8292681e-2,56.28371,1008.0227)"
       style="fill:#666465;fill-opacity:1;stroke:#b2131c;stroke-width:0;stroke-miterlimit:4;stroke-opacity:1"
       d="M 325.71428,229.50504 C 325.71428,294.16789 271.95428,346.6479 205.71428,346.6479 C 139.47428,346.6479 85.714279,294.16789 85.714279,229.50504 C 85.714279,164.84218 139.47428,112.36217 205.71428,112.36217 C 271.95428,112.36217 325.71428,164.84218 325.71428,229.50504 z "
       id="path4126" />
    <path
       transform="matrix(6.6666667e-2,0,0,6.8292681e-2,35.61771,1028.6887)"
       style="fill:#666465;fill-opacity:1;stroke:#b2131c;stroke-width:0;stroke-miterlimit:4;stroke-opacity:1"
       d="M 325.71428,229.50504 C 325.71428,294.16789 271.95428,346.6479 205.71428,346.6479 C 139.47428,346.6479 85.714279,294.16789 85.714279,229.50504 C 85.714279,164.84218 139.47428,112.36217 205.71428,112.36217 C 271.95428,112.36217 325.71428,164.84218 325.71428,229.50504 z "
       id="path4153" />
    <path
       transform="matrix(6.6666667e-2,0,0,6.8292681e-2,56.28371,1028.6887)"
       style="fill:#666465;fill-opacity:1;stroke:#b2131c;stroke-width:0;stroke-miterlimit:4;stroke-opacity:1"
       d="M 325.71428,229.50504 C 325.71428,294.16789 271.95428,346.6479 205.71428,346.6479 C 139.47428,346.6479 85.714279,294.16789 85.714279,229.50504 C 85.714279,164.84218 139.47428,112.36217 205.71428,112.36217 C 271.95428,112.36217 325.71428,164.84218 325.71428,229.50504 z "
       id="path4128" />
    <path
       transform="matrix(6.6666667e-2,0,0,6.8292681e-2,56.28371,966.69067)"
       style="fill:#b2131c;fill-opacity:1;stroke:#b2131c;stroke-width:0;stroke-miterlimit:4;stroke-opacity:1"
       d="M 325.71428,229.50504 C 325.71428,294.16789 271.95428,346.6479 205.71428,346.6479 C 139.47428,346.6479 85.714279,294.16789 85.714279,229.50504 C 85.714279,164.84218 139.47428,112.36217 205.71428,112.36217 C 271.95428,112.36217 325.71428,164.84218 325.71428,229.50504 z "
       id="path3153" />
    <path
       transform="matrix(6.6666667e-2,0,0,6.8292681e-2,56.28371,987.35667)"
       style="fill:#666465;fill-opacity:1;stroke:#b2131c;stroke-width:0;stroke-miterlimit:4;stroke-opacity:1"
       d="M 325.71428,229.50504 C 325.71428,294.16789 271.95428,346.6479 205.71428,346.6479 C 139.47428,346.6479 85.714279,294.16789 85.714279,229.50504 C 85.714279,164.84218 139.47428,112.36217 205.71428,112.36217 C 271.95428,112.36217 325.71428,164.84218 325.71428,229.50504 z "
       id="path3155" />
    <path
       transform="matrix(6.6666667e-2,0,0,6.8292681e-2,35.61771,987.35667)"
       style="fill:#666465;fill-opacity:1;stroke:#b2131c;stroke-width:0;stroke-miterlimit:4;stroke-opacity:1"
       d="M 325.71428,229.50504 C 325.71428,294.16789 271.95428,346.6479 205.71428,346.6479 C 139.47428,346.6479 85.714279,294.16789 85.714279,229.50504 C 85.714279,164.84218 139.47428,112.36217 205.71428,112.36217 C 271.95428,112.36217 325.71428,164.84218 325.71428,229.50504 z "
       id="path4149" />
    <path
       transform="matrix(6.6666667e-2,0,0,6.8292681e-2,35.61771,1008.0227)"
       style="fill:#666465;fill-opacity:1;stroke:#b2131c;stroke-width:0;stroke-miterlimit:4;stroke-opacity:1"
       d="M 325.71428,229.50504 C 325.71428,294.16789 271.95428,346.6479 205.71428,346.6479 C 139.47428,346.6479 85.714279,294.16789 85.714279,229.50504 C 85.714279,164.84218 139.47428,112.36217 205.71428,112.36217 C 271.95428,112.36217 325.71428,164.84218 325.71428,229.50504 z "
       id="path4151" />
    <path
       transform="matrix(6.6666667e-2,0,0,6.8292681e-2,14.951715,1008.0227)"
       style="fill:#666465;fill-opacity:1;stroke:#b2131c;stroke-width:0;stroke-miterlimit:4;stroke-opacity:1"
       d="M 325.71428,229.50504 C 325.71428,294.16789 271.95428,346.6479 205.71428,346.6479 C 139.47428,346.6479 85.714279,294.16789 85.714279,229.50504 C 85.714279,164.84218 139.47428,112.36217 205.71428,112.36217 C 271.95428,112.36217 325.71428,164.84218 325.71428,229.50504 z "
       id="path4186" />
    <path
       transform="matrix(6.6666667e-2,0,0,6.8292681e-2,14.951715,1028.6887)"
       style="fill:#666465;fill-opacity:1;stroke:#b2131c;stroke-width:0;stroke-miterlimit:4;stroke-opacity:1"
       d="M 325.71428,229.50504 C 325.71428,294.16789 271.95428,346.6479 205.71428,346.6479 C 139.47428,346.6479 85.714279,294.16789 85.714279,229.50504 C 85.714279,164.84218 139.47428,112.36217 205.71428,112.36217 C 271.95428,112.36217 325.71428,164.84218 325.71428,229.50504 z "
       id="path4188" />
    <path
       transform="matrix(6.6666667e-2,0,0,6.8292681e-2,-5.714285,987.35667)"
       style="fill:#666465;fill-opacity:1;stroke:#b2131c;stroke-width:0;stroke-miterlimit:4;stroke-opacity:1"
       d="M 325.71428,229.50504 C 325.71428,294.16789 271.95428,346.6479 205.71428,346.6479 C 139.47428,346.6479 85.714279,294.16789 85.714279,229.50504 C 85.714279,164.84218 139.47428,112.36217 205.71428,112.36217 C 271.95428,112.36217 325.71428,164.84218 325.71428,229.50504 z "
       id="path4207" />
    <path
       transform="matrix(6.6666667e-2,0,0,6.8292681e-2,-5.714285,1008.0227)"
       style="fill:#666465;fill-opacity:1;stroke:#b2131c;stroke-width:0;stroke-miterlimit:4;stroke-opacity:1"
       d="M 325.71428,229.50504 C 325.71428,294.16789 271.95428,346.6479 205.71428,346.6479 C 139.47428,346.6479 85.714279,294.16789 85.714279,229.50504 C 85.714279,164.84218 139.47428,112.36217 205.71428,112.36217 C 271.95428,112.36217 325.71428,164.84218 325.71428,229.50504 z "
       id="path4209" />
    <path
       transform="matrix(6.6666667e-2,0,0,6.8292681e-2,-5.714285,1028.6887)"
       style="fill:#666465;fill-opacity:1;stroke:#b2131c;stroke-width:0;stroke-miterlimit:4;stroke-opacity:1"
       d="M 325.71428,229.50504 C 325.71428,294.16789 271.95428,346.6479 205.71428,346.6479 C 139.47428,346.6479 85.714279,294.16789 85.714279,229.50504 C 85.714279,164.84218 139.47428,112.36217 205.71428,112.36217 C 271.95428,112.36217 325.71428,164.84218 325.71428,229.50504 z "
       id="path4211" />
    <path
       transform="matrix(6.6666667e-2,0,0,6.8292681e-2,56.28371,946.02467)"
       style="fill:#b2131c;fill-opacity:1;stroke:#b2131c;stroke-width:0;stroke-miterlimit:4;stroke-opacity:1"
       d="M 325.71428,229.50504 C 325.71428,294.16789 271.95428,346.6479 205.71428,346.6479 C 139.47428,346.6479 85.714279,294.16789 85.714279,229.50504 C 85.714279,164.84218 139.47428,112.36217 205.71428,112.36217 C 271.95428,112.36217 325.71428,164.84218 325.71428,229.50504 z "
       id="path2175" />
    <path
       transform="translate(-82.12512,-76.674589)"
       style="font-size:32px"
       d="M 228.04102,1088.8325 L 228.08936,1102.6563 C 228.08933,1104.0645 228.21726,1105.0405 228.47314,1105.5845 C 228.72898,1106.1284 229.09714,1106.4805 229.57764,1106.6406 L 229.57764,1107.6484 L 222.32959,1107.6484 C 222.00926,1106.6885 221.80125,1105.6807 221.70557,1104.625 C 220.61766,1105.7764 219.62547,1106.5923 218.729,1107.0728 C 217.25731,1107.9048 215.49755,1108.3208 213.44971,1108.3208 C 211.30517,1108.3208 209.5288,1107.7446 208.12061,1106.5923 C 206.48877,1105.2485 205.67285,1103.3447 205.67285,1100.8809 C 205.67285,1098.4805 206.33691,1096.6004 207.66504,1095.2405 C 208.99316,1093.8806 210.80908,1093.0405 213.11279,1092.7202 L 219.11279,1091.8091 C 220.04149,1091.6802 220.67381,1091.4478 221.00977,1091.1118 C 221.34569,1090.7759 221.51365,1090.336 221.51367,1089.792 C 221.51365,1088.544 220.98533,1087.6963 219.92871,1087.249 C 219.25682,1086.961 218.29686,1086.8169 217.04883,1086.8169 C 215.57714,1086.8169 214.50536,1087.2168 213.8335,1088.0166 C 213.35302,1088.5928 213.06493,1089.377 212.96924,1090.3691 L 206.48877,1090.3691 C 206.80908,1086.8487 208.1372,1084.3843 210.47314,1082.9761 C 212.16943,1081.9527 214.63329,1081.4409 217.86475,1081.4409 C 220.42528,1081.4409 222.56932,1081.8726 224.29688,1082.7358 C 226.79295,1083.9839 228.04099,1086.0161 228.04102,1088.8325 L 228.04102,1088.8325 z M 221.51367,1098.48 L 221.51367,1095.2163 C 221.19334,1095.4722 220.68114,1095.7202 219.97705,1095.9604 C 219.27293,1096.2007 218.20897,1096.4329 216.78516,1096.657 C 215.36132,1096.8811 214.3452,1097.2007 213.73682,1097.6157 C 212.8413,1098.2241 212.39355,1099.1685 212.39355,1100.4487 C 212.39355,1101.5044 212.7456,1102.3042 213.44971,1102.8481 C 214.02587,1103.2964 214.71386,1103.5205 215.51367,1103.5205 C 217.11327,1103.5205 218.51317,1103.0564 219.71338,1102.1282 C 220.91356,1101.2 221.51365,1099.9839 221.51367,1098.48 L 221.51367,1098.48 z "
       id="flowRoot2181" />
    <path
       transform="translate(-73.907,-78.381032)"
       d="M 248.57813,1084.6526 L 235.28906,1120.6292 L 226.47656,1120.6292 L 230.46094,1110.3401 L 220.80469,1084.6526 L 229.42969,1084.6526 L 234.96094,1101.1526 L 240.14063,1084.6526 L 248.57813,1084.6526 z "
       id="flowRoot2199" />
    <path
       transform="matrix(1.0447799,0,0,1.0447799,-91.33135,-114.92014)"
       style="font-size:48px"
       d="M 255.12207,1086.3838 L 262.03467,1086.3838 C 262.03466,1087.792 262.45067,1088.96 263.28271,1089.8877 C 264.52977,1091.2637 266.5454,1091.9517 269.32959,1091.9517 C 271.37742,1091.9517 273.00975,1091.6641 274.22656,1091.0889 C 275.7617,1090.3525 276.52927,1089.1524 276.5293,1087.4883 C 276.52927,1086.2402 275.95359,1085.2964 274.80225,1084.6567 C 274.03367,1084.2407 272.52977,1083.7608 270.29053,1083.2168 L 266.59473,1082.3525 C 262.91405,1081.4883 260.40185,1080.5923 259.05811,1079.6646 C 256.78564,1078.0962 255.64941,1075.6162 255.64941,1072.2246 C 255.64941,1069.5684 256.4497,1067.3282 258.05029,1065.5039 C 260.32177,1062.9121 263.93749,1061.6162 268.89746,1061.6162 C 273.60154,1061.6162 277.15378,1062.9444 279.5542,1065.6006 C 281.37839,1067.6162 282.2905,1070 282.29053,1072.752 L 275.37793,1072.752 C 275.21775,1071.376 274.81785,1070.3199 274.17822,1069.5835 C 273.02586,1068.2398 271.07371,1067.5679 268.32178,1067.5679 C 266.68993,1067.5679 265.34618,1067.856 264.29053,1068.4321 C 262.97802,1069.1685 262.32177,1070.2564 262.32178,1071.6958 C 262.32177,1072.8804 262.7539,1073.7764 263.61816,1074.3838 C 264.09765,1074.7364 264.88182,1075.0405 265.9707,1075.2964 L 274.41846,1077.3604 C 277.26609,1078.0645 279.36179,1078.9766 280.70557,1080.0967 C 282.52976,1081.6006 283.44186,1083.7764 283.44189,1086.624 C 283.44186,1090.1123 282.29001,1092.8164 279.98633,1094.7363 C 277.45798,1096.8486 274.08201,1097.9048 269.8584,1097.9048 C 264.2578,1097.9048 260.22558,1096.5288 257.76172,1093.7769 C 256.00195,1091.8247 255.12207,1089.3604 255.12207,1086.3838 L 255.12207,1086.3838 z "
       id="flowRoot2223" />
    <path
       transform="translate(-80.282,-77.006032)"
       style="font-size:48px"
       d="M 303.28857,1099.1802 L 310.10449,1099.1802 C 309.91208,1101.3882 309.11179,1103.3721 307.70361,1105.1318 C 305.59226,1107.8203 302.50438,1109.1646 298.43994,1109.1646 C 294.15185,1109.1646 290.98388,1107.7246 288.93604,1104.8447 C 287.36767,1102.6367 286.58349,1099.8364 286.5835,1096.4438 C 286.58349,1092.0923 287.54345,1088.7002 289.46338,1086.2676 C 291.54345,1083.6123 294.66356,1082.2847 298.82373,1082.2847 C 301.51219,1082.2847 303.81639,1082.9087 305.73633,1084.1567 C 308.39255,1085.8521 309.86423,1088.4917 310.15137,1092.0757 L 303.33545,1092.0757 C 303.04735,1090.604 302.47166,1089.5161 301.6084,1088.812 C 300.90428,1088.2359 299.99217,1087.9478 298.87207,1087.9478 C 296.95214,1087.9478 295.52831,1088.7798 294.60059,1090.4438 C 293.86425,1091.7564 293.49609,1093.3887 293.49609,1095.3408 C 293.49609,1098.3809 293.92016,1100.5247 294.76831,1101.7722 C 295.61644,1103.0198 296.9204,1103.6436 298.68018,1103.6436 C 300.15184,1103.6436 301.33592,1103.0518 302.23242,1101.8682 C 302.93651,1100.9404 303.28856,1100.0444 303.28857,1099.1802 L 303.28857,1099.1802 z "
       id="flowRoot2231" />
    <path
       transform="translate(25.71775,-76.399709)"
       style="font-size:32px"
       d="M 228.04102,1088.8325 L 228.08936,1102.6563 C 228.08933,1104.0645 228.21726,1105.0405 228.47314,1105.5845 C 228.72898,1106.1284 229.09714,1106.4805 229.57764,1106.6406 L 229.57764,1107.6484 L 222.32959,1107.6484 C 222.00926,1106.6885 221.80125,1105.6807 221.70557,1104.625 C 220.61766,1105.7764 219.62547,1106.5923 218.729,1107.0728 C 217.25731,1107.9048 215.49755,1108.3208 213.44971,1108.3208 C 211.30517,1108.3208 209.5288,1107.7446 208.12061,1106.5923 C 206.48877,1105.2485 205.67285,1103.3447 205.67285,1100.8809 C 205.67285,1098.4805 206.33691,1096.6004 207.66504,1095.2405 C 208.99316,1093.8806 210.80908,1093.0405 213.11279,1092.7202 L 219.11279,1091.8091 C 220.04149,1091.6802 220.67381,1091.4478 221.00977,1091.1118 C 221.34569,1090.7759 221.51365,1090.336 221.51367,1089.792 C 221.51365,1088.544 220.98533,1087.6963 219.92871,1087.249 C 219.25682,1086.961 218.29686,1086.8169 217.04883,1086.8169 C 215.57714,1086.8169 214.50536,1087.2168 213.8335,1088.0166 C 213.35302,1088.5928 213.06493,1089.377 212.96924,1090.3691 L 206.48877,1090.3691 C 206.80908,1086.8487 208.1372,1084.3843 210.47314,1082.9761 C 212.16943,1081.9527 214.63329,1081.4409 217.86475,1081.4409 C 220.42528,1081.4409 222.56932,1081.8726 224.29688,1082.7358 C 226.79295,1083.9839 228.04099,1086.0161 228.04102,1088.8325 L 228.04102,1088.8325 z M 221.51367,1098.48 L 221.51367,1095.2163 C 221.19334,1095.4722 220.68114,1095.7202 219.97705,1095.9604 C 219.27293,1096.2007 218.20897,1096.4329 216.78516,1096.657 C 215.36132,1096.8811 214.3452,1097.2007 213.73682,1097.6157 C 212.8413,1098.2241 212.39355,1099.1685 212.39355,1100.4487 C 212.39355,1101.5044 212.7456,1102.3042 213.44971,1102.8481 C 214.02587,1103.2964 214.71386,1103.5205 215.51367,1103.5205 C 217.11327,1103.5205 218.51317,1103.0564 219.71338,1102.1282 C 220.91356,1101.2 221.51365,1099.9839 221.51367,1098.48 L 221.51367,1098.48 z "
       id="flowRoot2239" />
    <path
       transform="translate(-81.407,-59.506032)"
       d="M 340.82031,1090.3575 L 340.82031,1055.9982 L 347.40625,1055.9982 L 347.40625,1090.3575 L 340.82031,1090.3575 z "
       id="flowRoot2247" />
    <path
       transform="translate(-75.407,-66.631032)"
       d="M 179.84863,1085.0601 L 179.84863,1097.4922 L 172.64746,1097.4922 L 172.64746,1063.0288 L 188.3916,1063.0288 C 191.7197,1063.0288 194.33591,1064.0127 196.24023,1065.9805 C 198.1445,1067.9483 199.09665,1070.6441 199.09668,1074.0679 C 199.09665,1076.5005 198.42429,1078.7246 197.07959,1080.7402 C 195.15964,1083.6201 192.16795,1085.0601 188.10449,1085.0601 L 179.84863,1085.0601 z M 179.80029,1079.1084 L 186.47266,1079.1084 C 188.77635,1079.1084 190.34422,1078.4043 191.17627,1076.9961 C 191.62449,1076.2285 191.84861,1075.1406 191.84863,1073.7324 C 191.84861,1072.0362 191.35252,1070.8201 190.36035,1070.0842 C 189.36814,1069.3484 187.75193,1068.9805 185.51172,1068.9805 L 179.80029,1068.9805 L 179.80029,1079.1084 z "
       id="flowRoot2255" />
    <path
       transform="translate(-80.032,-78.006032)"
       d="M 367.51855,1102.1289 L 374.43115,1102.1289 C 373.5991,1104.9775 372.06297,1107.1055 369.82275,1108.5127 C 367.93504,1109.6973 365.72703,1110.2896 363.19873,1110.2896 C 359.26317,1110.2896 356.23925,1109.2813 354.12695,1107.2646 C 351.69531,1104.9287 350.47949,1101.2808 350.47949,1096.3208 C 350.47949,1093.4087 351.10351,1090.8809 352.35156,1088.7373 C 354.39941,1085.1856 357.83935,1083.4097 362.67139,1083.4097 C 365.90282,1083.4097 368.54246,1084.2896 370.59033,1086.0493 C 373.34324,1088.4175 374.7197,1092.2256 374.71973,1097.4736 L 374.67139,1098.6733 L 357.15039,1098.6733 C 357.43847,1100.9448 358.05468,1102.5527 358.99902,1103.4971 C 359.94335,1104.4414 361.34325,1104.9136 363.19873,1104.9136 C 364.1909,1104.9136 365.09495,1104.6736 365.91089,1104.1936 C 366.72679,1103.7136 367.26268,1103.0254 367.51855,1102.1289 L 367.51855,1102.1289 z M 357.39063,1094.3052 L 367.80713,1094.3052 C 367.61473,1092.4175 366.97459,1091.0093 365.88672,1090.0806 C 364.9912,1089.313 363.90331,1088.9292 362.62305,1088.9292 C 361.05468,1088.9292 359.83861,1089.3933 358.97485,1090.3215 C 358.11108,1091.2498 357.583,1092.5777 357.39063,1094.3052 L 357.39063,1094.3052 z "
       id="flowRoot2263" />
  </g>
</svg>
